<?xml version="1.0" encoding="UTF-8"?>
<svg version="1.1" xmlns="http://www.w3.org/2000/svg" width="155" height="44">
<path d="M0 0 C1.90625 0.82421875 1.90625 0.82421875 4.59375 2.32421875 C3.84375 7.07421875 3.84375 7.07421875 1.59375 9.32421875 C1.91573966 12.42348694 1.91573966 12.42348694 2.59375 15.32421875 C5.0765787 16.21094329 6.21404277 16.46940093 8.71875 15.51171875 C10.73044154 14.33355277 10.73044154 14.33355277 12.59375 12.32421875 C15.03617436 17.20906747 14.32472326 24.5896742 12.9453125 29.75 C10.32809317 35.51011947 5.90556119 39.72314447 0.234375 42.46484375 C-5.81248978 44.43275832 -12.94037274 44.38392376 -18.78125 41.76171875 C-23.94816514 38.73692051 -28.21629706 33.91305792 -30.40625 28.32421875 C-31.27043098 20.93774554 -31.52455821 14.05244094 -26.90234375 7.9375 C-19.36384835 -0.19147807 -11.04614497 -3.10224526 0 0 Z M-15.40625 15.32421875 C-17.33488839 17.86651481 -17.41527291 19.10766893 -17.28125 22.32421875 C-16.25711454 25.83554033 -15.35173102 27.17481368 -12.40625 29.32421875 C-8.81244396 30.47117813 -7.13878748 30.64054175 -3.65625 29.13671875 C-1.2693436 27.21393304 -0.24441999 26.25781371 0.59375 23.32421875 C0.44688845 19.79954146 -0.00676989 17.87165445 -2.09375 15.01171875 C-6.92253795 11.48800862 -10.78611049 11.6024397 -15.40625 15.32421875 Z M-24.40625 21.32421875 C-23.92751863 26.35089816 -22.68300909 29.45932341 -19.40625 33.32421875 C-15.81788763 35.66822965 -12.73139242 37.32421875 -8.40625 37.32421875 C-8.40625 36.66421875 -8.40625 36.00421875 -8.40625 35.32421875 C-9.64375 34.91171875 -10.88125 34.49921875 -12.15625 34.07421875 C-15.74418364 32.70497199 -18.10371267 31.51234736 -20.40625 28.32421875 C-21.65625 24.57421875 -21.65625 24.57421875 -22.40625 21.32421875 C-23.06625 21.32421875 -23.72625 21.32421875 -24.40625 21.32421875 Z " fill="#F6373E" transform="translate(30.40625,0.67578125)"/>
<path d="M0 0 C1.32 0.33 2.64 0.66 4 1 C3.48400816 8.8822202 1.9078547 16.34458305 0 24 C-0.99 24 -1.98 24 -3 24 C-3 20.7 -3 17.4 -3 14 C-3.556875 14.94875 -4.11375 15.8975 -4.6875 16.875 C-7.06570302 20.08878787 -8.24034426 20.95565118 -12 22 C-12.66 21.34 -13.32 20.68 -14 20 C-14 18.35 -14 16.7 -14 15 C-16.475 19.455 -16.475 19.455 -19 24 C-19.99 24 -20.98 24 -22 24 C-22.82734701 18.55692756 -19.9382654 14.72792523 -17.25 10.25 C-16.8065625 9.47011719 -16.363125 8.69023437 -15.90625 7.88671875 C-15.46796875 7.14550781 -15.0296875 6.40429688 -14.578125 5.640625 C-14.18012695 4.96547852 -13.78212891 4.29033203 -13.37207031 3.59472656 C-11.69597797 1.64664201 -10.50049373 1.3704927 -8 1 C-6.46833832 5.08443115 -7.36918348 8.79455657 -8 13 C-5.36 8.71 -2.72 4.42 0 0 Z M-2 10 C-1 12 -1 12 -1 12 Z " fill="#FFFFFF" transform="translate(77,11)"/>
<path d="M0 0 C0.66 0.33 1.32 0.66 2 1 C2 3.31 2 5.62 2 8 C4.56995074 6.71502463 4.90434463 5.50087627 6.125 2.9375 C6.47820312 2.20402344 6.83140625 1.47054688 7.1953125 0.71484375 C7.46085937 0.14894531 7.72640625 -0.41695312 8 -1 C11 0 11 0 12 2 C12.99 2.33 13.98 2.66 15 3 C15 4.32 15 5.64 15 7 C15.99 7 16.98 7 18 7 C17.34 8.32 16.68 9.64 16 11 C14.0625 10.625 14.0625 10.625 12 10 C11.67 9.34 11.34 8.68 11 8 C10.60167969 8.49113281 10.20335937 8.98226563 9.79296875 9.48828125 C7.4878245 11.43183425 6.2803281 11.316536 3.3125 11.1875 C2.10013672 11.14689453 2.10013672 11.14689453 0.86328125 11.10546875 C0.24839844 11.07066406 -0.36648437 11.03585938 -1 11 C-1 10.34 -1 9.68 -1 9 C-1.556875 9.515625 -2.11375 10.03125 -2.6875 10.5625 C-5 12 -5 12 -7.75 11.6875 C-8.4925 11.460625 -9.235 11.23375 -10 11 C-11 8 -11 8 -10.07421875 5.9921875 C-9.61660156 5.29351562 -9.15898438 4.59484375 -8.6875 3.875 C-8.23761719 3.17117187 -7.78773438 2.46734375 -7.32421875 1.7421875 C-4.97469732 -1.3489233 -3.47399898 -1.08562468 0 0 Z M-4 3 C-3.67 3.66 -3.34 4.32 -3 5 C-2.67 4.34 -2.34 3.68 -2 3 C-2.66 3 -3.32 3 -4 3 Z " fill="#FFFFFF" transform="translate(137,21)"/>
<path d="M0 0 C2.375 1.625 2.375 1.625 4 4 C4.61195145 7.6717087 4.48706506 9.28813568 2.375 12.375 C-0.71186432 14.48706506 -2.3282913 14.61195145 -6 14 C-8.375 12.375 -8.375 12.375 -10 10 C-10.61195145 6.3282913 -10.48706506 4.71186432 -8.375 1.625 C-5.28813568 -0.48706506 -3.6717087 -0.61195145 0 0 Z M-5 4 C-5.33 5.65 -5.66 7.3 -6 9 C-3.525 9.495 -3.525 9.495 -1 10 C-0.67 8.35 -0.34 6.7 0 5 C-1.65 4.67 -3.3 4.34 -5 4 Z " fill="#F3294F" transform="translate(25,15)"/>
<path d="M0 0 C1.32 0 2.64 0 4 0 C3.67 2.31 3.34 4.62 3 7 C3.99 4.69 4.98 2.38 6 0 C6.99 0 7.98 0 9 0 C8.67 4.29 8.34 8.58 8 13 C6.68 12.34 5.36 11.68 4 11 C1.36195411 11.39397335 1.36195411 11.39397335 -1 12 C-1.33 11.67 -1.66 11.34 -2 11 C-1.9140625 9.00390625 -1.9140625 9.00390625 -1.625 6.5625 C-1.53476563 5.75941406 -1.44453125 4.95632812 -1.3515625 4.12890625 C-1 2 -1 2 0 0 Z " fill="#FFFFFF" transform="translate(82,21)"/>
<path d="M0 0 C1.0828125 0.37125 1.0828125 0.37125 2.1875 0.75 C1.8575 2.4 1.5275 4.05 1.1875 5.75 C0.1975 6.08 -0.7925 6.41 -1.8125 6.75 C-2.1425 6.09 -2.4725 5.43 -2.8125 4.75 C-2.8125 6.07 -2.8125 7.39 -2.8125 8.75 C-2.1525 9.41 -1.4925 10.07 -0.8125 10.75 C-0.8125 11.74 -0.8125 12.73 -0.8125 13.75 C-3.1225 14.08 -5.4325 14.41 -7.8125 14.75 C-8.4725 13.76 -9.1325 12.77 -9.8125 11.75 C-8.8225 11.42 -7.8325 11.09 -6.8125 10.75 C-7.4725 10.09 -8.1325 9.43 -8.8125 8.75 C-8.7196895 5.22320099 -8.00708784 3.95539828 -5.5625 1.375 C-2.8125 -0.25 -2.8125 -0.25 0 0 Z " fill="#FFFFFF" transform="translate(100.8125,19.25)"/>
<path d="M0 0 C0 1.65 0 3.3 0 5 C-1.32 4.67 -2.64 4.34 -4 4 C-4 4.99 -4 5.98 -4 7 C-2.68 7 -1.36 7 0 7 C-1.875 10.875 -1.875 10.875 -3 12 C-6 12.125 -6 12.125 -9 12 C-9.33 11.67 -9.66 11.34 -10 11 C-9.53225806 3.75 -9.53225806 3.75 -7.625 1.0625 C-4.65516786 -0.87931332 -3.39369269 -1.1312309 0 0 Z " fill="#FFFFFF" transform="translate(119,21)"/>
<path d="M0 0 C1.98 0 3.96 0 6 0 C6 0.99 6 1.98 6 3 C5.01 3 4.02 3 3 3 C3 6.96 3 10.92 3 15 C1.35 15.33 -0.3 15.66 -2 16 C-2.66 15.34 -3.32 14.68 -4 14 C-3.625 11.375 -3.625 11.375 -3 9 C-2.01 8.67 -1.02 8.34 0 8 C0 5.36 0 2.72 0 0 Z " fill="#F73D37" transform="translate(37,0)"/>
<path d="M0 0 C0.33 2.31 0.66 4.62 1 7 C2.32 7.33 3.64 7.66 5 8 C5 9.32 5 10.64 5 12 C1.77060081 12.35882213 0.38790237 12.27258004 -2.3125 10.375 C-4.46725216 7.34238585 -4.55462605 5.6446855 -4 2 C-1 0 -1 0 0 0 Z " fill="#F8462C" transform="translate(19,17)"/>
<path d="M0 0 C0.99 0 1.98 0 3 0 C2.25 6.625 2.25 6.625 0 10 C-0.99 9.67 -1.98 9.34 -3 9 C-2.44271087 5.65626525 -1.64826111 2.96687001 0 0 Z " fill="#FFFFFF" transform="translate(123,22)"/>
<path d="M0 0 C0.99 0.33 1.98 0.66 3 1 C2.34 4.3 1.68 7.6 1 11 C0.01 10.67 -0.98 10.34 -2 10 C-1.85950482 8.52031676 -1.71245174 7.04125484 -1.5625 5.5625 C-1.48128906 4.73878906 -1.40007812 3.91507813 -1.31640625 3.06640625 C-1 1 -1 1 0 0 Z " fill="#FFFFFF" transform="translate(105,22)"/>
<path d="M0 0 C1.98 0 3.96 0 6 0 C6 0.99 6 1.98 6 3 C5.01 3 4.02 3 3 3 C3 5.97 3 8.94 3 12 C2.67 12 2.34 12 2 12 C2 9.03 2 6.06 2 3 C1.34 3 0.68 3 0 3 C0 2.01 0 1.02 0 0 Z " fill="#F2205C" transform="translate(37,0)"/>
<path d="M0 0 C0.99 0 1.98 0 3 0 C3 1.65 3 3.3 3 5 C1.68 4.67 0.36 4.34 -1 4 C-0.67 2.68 -0.34 1.36 0 0 Z " fill="#FFFFFF" transform="translate(107,15)"/>
<path d="M0 0 C0.66 0 1.32 0 2 0 C2.33 2.31 2.66 4.62 3 7 C1.68 6.34 0.36 5.68 -1 5 C-0.67 3.35 -0.34 1.7 0 0 Z " fill="#FA4D23" transform="translate(34,9)"/>
<path d="M0 0 C0.99 0.33 1.98 0.66 3 1 C3 2.32 3 3.64 3 5 C1.68 4.67 0.36 4.34 -1 4 C-0.67 2.68 -0.34 1.36 0 0 Z " fill="#FFFFFF" transform="translate(125,15)"/>
<path d="M0 0 C0.99 0.33 1.98 0.66 3 1 C2.67 1.99 2.34 2.98 2 4 C1.01 3.67 0.02 3.34 -1 3 C-0.67 2.01 -0.34 1.02 0 0 Z " fill="#F6383E" transform="translate(21,20)"/>
</svg>
